<svg width="13" height="13" viewBox="0 0 13 13" fill="none" xmlns="http://www.w3.org/2000/svg">
<g id="fi_5769335" clip-path="url(#clip0_10375_8606)">
<path id="Vector" d="M12.6967 1.03774C12.3522 1.37357 11.8387 2.03874 11.4725 3.3214C10.816 5.60507 10.6427 6.4999 9.76302 7.34057C8.42836 8.62107 5.89985 8.54524 5.89985 8.54524C5.10035 9.60907 4.18602 10.9957 3.90435 12.2676C3.87324 12.4044 3.79944 12.5279 3.69361 12.62C3.58778 12.7122 3.4554 12.7684 3.31557 12.7805C3.17573 12.7925 3.03569 12.7598 2.91564 12.6871C2.7956 12.6144 2.70177 12.5054 2.64769 12.3759C2.14714 11.0972 1.37883 9.94027 0.394355 8.9829C0.334564 8.92787 0.287671 8.8603 0.257029 8.78504C0.226386 8.70977 0.212751 8.62867 0.217099 8.54752C0.221446 8.46638 0.243668 8.38719 0.282176 8.31563C0.320684 8.24407 0.374527 8.1819 0.439855 8.13357L0.892688 7.79557C0.987185 7.7233 1.10237 7.68325 1.22132 7.6813C1.34027 7.67935 1.45671 7.7156 1.55352 7.78474C1.98902 8.09457 2.81452 9.3014 3.25435 10.3999C3.52195 9.58203 3.91918 8.81246 4.43085 8.12057C4.38102 7.97324 4.32469 7.79124 4.26619 7.58107C3.83285 5.9864 3.40602 2.79274 6.22702 1.03774C8.25719 -0.225429 11.3035 0.270738 12.5624 0.558904C12.6123 0.569829 12.6583 0.594126 12.6954 0.629193C12.7326 0.664261 12.7595 0.708778 12.7733 0.757976C12.7871 0.807174 12.7873 0.8592 12.7738 0.908481C12.7603 0.957763 12.7336 1.00244 12.6967 1.03774Z" fill="#8EC140"/>
<path id="Vector_2" d="M9.89734 2.67151C7.71838 4.09086 5.8571 5.94623 4.43084 8.12067C4.38101 7.97334 4.32467 7.79134 4.26617 7.58117C5.70486 5.48744 7.53905 3.6952 9.66551 2.30534C9.71407 2.2746 9.77285 2.2644 9.82892 2.277C9.88499 2.28959 9.93377 2.32395 9.96451 2.37251C9.99525 2.42106 10.0054 2.47984 9.99285 2.53592C9.98025 2.59199 9.9459 2.64076 9.89734 2.67151Z" fill="#738E43"/>
</g>
<defs>
<clipPath id="clip0_10375_8606">
<rect width="13" height="13" fill="white"/>
</clipPath>
</defs>
</svg>
